<svg xmlns="http://www.w3.org/2000/svg" width="18" height="24" viewBox="0 0 18 24">
    <g fill="#CD390C" fill-rule="nonzero">
        <path d="M11.348 10.227L8.296 13.42c-.313.323-.313.89 0 1.293.156.162.391.283.587.283.195 0 .43-.121.587-.283l3.052-3.153c.313-.323.313-.889 0-1.293a.743.743 0 0 0-1.174-.04z"/>
        <path d="M17.53 6.67c.43-.445.43-1.132 0-1.577a1.04 1.04 0 0 0-1.526 0l-1.721 1.779c-.94-.728-1.957-1.294-3.092-1.577.43-.485.666-1.172.666-1.9 0-1.697-1.292-3.031-2.935-3.031-1.644 0-2.935 1.334-2.935 3.031 0 .728.274 1.415.665 1.9C2.935 6.346.157 9.863.157 14.026c0 4.972 3.913 9.014 8.726 9.014 4.813 0 8.726-4.042 8.726-9.014 0-2.061-.705-3.961-1.84-5.538L17.53 6.67zM8.883 1.9c.821 0 1.447.687 1.447 1.495 0 .809-.665 1.496-1.447 1.496a1.434 1.434 0 0 1-1.448-1.455c0-.85.626-1.536 1.448-1.536zm0 18.917c-3.64 0-6.535-3.032-6.535-6.79 0-3.76 2.935-6.792 6.574-6.792s6.574 3.032 6.574 6.791c0 3.76-2.974 6.79-6.613 6.79z"/>
    </g>
</svg>
